<svg id="startapp_logo" xmlns="http://www.w3.org/2000/svg" width="449.634" height="164.069" viewBox="0 0 449.634 164.069">
  <path id="Path_10" data-name="Path 10" d="M474,189.081a53.081,53.081,0,0,1-43.925-35.6l-1.422-4.88a53.116,53.116,0,0,1-1.141-18.857l.488-3.308a12.206,12.206,0,0,1,.3-1.348,16.573,16.573,0,0,1,.364-1.654c.141-.62,1.53-5.285,2.258-7.129A48.625,48.625,0,0,1,433,111.677c.389-.769.827-1.588,1.307-2.374.339-.62,2.324-3.672,2.754-4.276l1.315-1.737a53.362,53.362,0,0,1,48.755-20.321c4.508.562,10.281,2.787,14.49,4.425,1.579.6,3.953,1.522,4.532,1.654a4.135,4.135,0,0,0,4.524-3.7L516.4,39.135a14.887,14.887,0,0,1,29.725,1.447l-12.977,104.78A53.288,53.288,0,0,1,474,189.081Zm-34.315-30.6a46.646,46.646,0,0,0,83.632-3.829c.256-.612.529-1.249.778-1.919s.5-1.348.736-2.035.422-1.34.6-1.977c.306-1.1.6-2.233.827-3.391.1-.5.19-.968.273-1.431l.678-4.309,2.481-19.957a16.359,16.359,0,0,1-9.925,1.944c-4.681-.579-8.006-3.308-10.388-5.624l-2.431-2.233a103.6,103.6,0,0,0-9-7.444c-1.157-.827-2.208-1.6-3.1-2.183a12.54,12.54,0,0,0-5.3-2.018,9.983,9.983,0,0,0-3.143.091,13,13,0,0,0-3.97,1.464,12.233,12.233,0,0,0-5.641,6.741,12.448,12.448,0,0,0-.041,7.551,22.9,22.9,0,0,0,2.605,4.83l10.33,17.062a21.677,21.677,0,0,1-20.677,32.6c-1.828-.281-2.564-.405-2.936-.5a52.725,52.725,0,0,1-26.383-13.456Zm-5.111-30.146c-.116.629-.215,1.282-.3,1.944v.289c-1.885,16.3,15.971,31.387,33.174,34.737l2.4.405A14.887,14.887,0,0,0,483.91,143.3l-10.256-16.938a27.419,27.419,0,0,1-3.35-6.484,18.824,18.824,0,0,1,8.825-22.19,19.65,19.65,0,0,1,6.029-2.225,17.122,17.122,0,0,1,5.244-.149,19.188,19.188,0,0,1,8.171,3.077c.984.637,2.159,1.456,3.432,2.407a111.049,111.049,0,0,1,9.544,7.907l2.481,2.316c1.654,1.654,3.879,3.474,6.55,3.813a9.586,9.586,0,0,0,10.653-8.32l.364-2.225L539.306,42a8.157,8.157,0,1,0-16.185-2.043l-5.715,46.183a10.926,10.926,0,0,1-12.092,9.594,34.143,34.143,0,0,1-6.129-2.026c-3.9-1.505-9.222-3.565-12.885-4.02a46.862,46.862,0,0,0-44.992,21.131,19.272,19.272,0,0,0-1.141,1.869,20.08,20.08,0,0,0-1.116,2.043,37.027,37.027,0,0,0-1.712,3.763v.083l-.116.256c-.314.827-.587,1.547-.827,2.283s-.472,1.48-.67,2.2-.323,1.158-.447,1.654-.248.992-.323,1.48c-.066.306-.116.571-.166.827Z" transform="translate(-96.489 -25.434)" fill="#393939"/>
  <path id="Path_11" data-name="Path 11" d="M57.331,125.557c-5.574-3.308-7.377-5.318-7.485-8.047-.1-3.308,2.738-5.88,6.757-5.88,3.2,0,7.022.976,10.752,6.137l10.983-9.338C73.591,101.406,65.279,97.85,57.232,97.85c-13.051,0-23.58,8.271-23.58,21.413,0,11.347,8.932,15.789,16.98,20.536,6.5,3.763,9.387,5.161,9.387,8.353,0,3.515-3.2,6.559-8.618,6.559-4.541,0-9.751-2.688-12.952-8.2l-11.1,9.751c5.5,8.709,15.019,12.331,23.943,12.331,14.5,0,24.919-8.155,24.919-22.81C76.213,134.844,67.289,131.545,57.331,125.557Z" transform="translate(-27.35 -37.957)" fill="#393939"/>
  <path id="Path_12" data-name="Path 12" d="M105.887,156.6c-1.547,0-2.481-1.241-2.117-3.92l2.324-19.5h9.85l1.447-11.819h-9.859l2.117-16.765-14.887,2.936-1.8,13.828H88.187L86.74,133.173h4.747l-2.58,21.38c-1.29,10.992,4.028,15.168,11.356,15.168a25.709,25.709,0,0,0,12.8-3.41l-2.378-11.245A11.108,11.108,0,0,1,105.887,156.6Z" transform="translate(-37.621 -39.123)" fill="#393939"/>
  <path id="Path_13" data-name="Path 13" d="M154.005,124.677l-.364,3.407h-.306c-2.481-2.68-6.195-4.284-11.2-4.284-12.406,0-22.4,12.952-22.4,29.873,0,10.942,5.21,19.4,15.483,19.4,5.674,0,10.371-3.507,13.721-8.668h.207l-.976,7.791h14.6l5.789-47.523Zm-1.447,15.714c-1.547,12.745-7.535,19.758-12.745,19.758-3.308,0-5.417-2.994-5.417-7.634,0-7.013,3.821-15.714,10.272-15.714a10.611,10.611,0,0,1,7.89,3.507Z" transform="translate(-43.328 -42.445)" fill="#393939"/>
  <path id="Path_14" data-name="Path 14" d="M226.43,156.6c-1.555,0-2.481-1.241-2.117-3.92l2.324-19.5h9.85l1.4-11.819h-9.8L230.2,104.59l-14.962,2.936-1.753,13.828h-4.8c-5.211,0-9.346,1.753-13.059,6.55h-.207l.777-6.55H181.719l-.05.05-5.789,47.424.05.05h14.449a.05.05,0,0,0,.05-.05l2.117-17.286c1.5-11.819,7.584-18.369,16.616-18.369H212.1l-2.622,21.38c-1.34,10.992,3.978,15.168,11.356,15.168a25.721,25.721,0,0,0,12.8-3.408l-2.374-11.248A11.106,11.106,0,0,1,226.43,156.6Z" transform="translate(-53.036 -39.123)" fill="#393939"/>
  <path id="Path_15" data-name="Path 15" d="M389.145,123.8c-6.087,0-10.835,3.308-14.242,8.362H374.7l.984-7.444H361.075L360.562,129a27.341,27.341,0,0,1,3.556,14.341c0,9.751-3.143,18.419-8.353,24.456l-2.895,23.629h14.606l2.63-21.669h.24c2.837,2.274,6.658,3.358,11.149,3.358,12.795,0,22.753-12.9,22.753-29.774C404.256,132.418,399.053,123.8,389.145,123.8Zm-10.884,36.325c-3.093,0-5.368-.72-7.071-2.944l.207-1.547c1.654-12.174,7.535-18.832,12.9-18.832,3.25,0,5.26,3.25,5.26,7.378C389.559,151.763,385.738,160.125,378.261,160.125Z" transform="translate(-83.645 -42.445)" fill="#393939"/>
  <path id="Path_16" data-name="Path 16" d="M351.556,143.3a28.948,28.948,0,0,0-.926-7.535c-1.911-7.063-6.658-11.968-14.135-11.968-6.087,0-10.834,3.308-14.242,8.362H322.1l.935-7.444H308.424l-8.2,66.711h14.606l2.68-21.669h.157c2.837,2.274,6.658,3.358,11.141,3.358,7.9,0,14.755-4.962,18.782-12.7A36.389,36.389,0,0,0,351.556,143.3Zm-25.879,16.822c-3.1,0-5.417-.72-7.071-2.944l.157-1.547c1.654-12.174,7.534-18.832,12.894-18.832,3.308,0,5.268,3.25,5.268,7.378C336.908,151.763,333.12,160.125,325.677,160.125Z" transform="translate(-74.54 -42.445)" fill="#393939"/>
  <path id="Path_17" data-name="Path 17" d="M295.788,124.677H281.257l-.414,3.407h-.256c-2.531-2.68-6.245-4.284-11.248-4.284-12.406,0-22.389,12.952-22.389,29.873,0,10.942,5.21,19.4,15.474,19.4,5.673,0,10.371-3.507,13.729-8.668h.257l-.984,7.791H290Zm-16,15.714c-1.5,12.745-7.534,19.758-12.687,19.758-3.308,0-5.475-2.994-5.475-7.634,0-7.013,3.87-15.714,10.322-15.714a10.512,10.512,0,0,1,7.84,3.507Z" transform="translate(-65.327 -42.445)" fill="#393939"/>
</svg>
